<svg width="98" height="96" viewBox="0 0 98 96" xmlns="http://www.w3.org/2000/svg">
  <path fill="#111111" d="M49 0C21.9 0 0 21.8 0 48.7c0 21.5 14 39.7 33.4 46.1 2.4.4 3.3-1 3.3-2.3 0-1.1-.1-4.8-.1-8.7-13.6 2.9-16.4-5.8-16.4-5.8-2.2-5.5-5.3-6.9-5.3-6.9-4.4-2.9.3-2.9.3-2.9 4.8.3 7.4 4.9 7.4 4.9 4.3 7.3 11.2 5.2 13.9 4 .4-3.1 1.7-5.2 3-6.4-10.8-1.2-22.2-5.3-22.2-23.8 0-5.3 1.9-9.6 5-13-0.5-1.2-2.2-6.2.5-12.8 0 0 4.1-1.3 13.3 4.9 3.9-1.1 8-1.6 12.1-1.6s8.2.5 12.1 1.6c9.2-6.2 13.3-4.9 13.3-4.9 2.7 6.6 1 11.6.5 12.8 3.1 3.4 5 7.7 5 13 0 18.5-11.4 22.5-22.3 23.7 1.8 1.5 3.3 4.4 3.3 8.9 0 6.4-.1 11.5-.1 13 0 1.3.9 2.7 3.3 2.3C84 88.4 98 70.2 98 48.7 98 21.8 76.1 0 49 0z"/>
</svg>
